<?xml version="1.0" encoding="UTF-8"?><svg xmlns="http://www.w3.org/2000/svg" viewBox="0 0 403 318.9"><defs><style>.c{stroke:#c44a08;}.c,.d{fill:none;stroke-miterlimit:10;stroke-width:3px;}.d{stroke:#000;}.e{fill:#e6dbdb;}</style></defs><g id="a"/><g id="b"><g><path class="e" d="M337.74,142.42l.11-56.85c0-46.43-37.64-84.07-84.07-84.07s-84.07,37.64-84.07,84.07l-.42,231.83h168.34l.1-174.98"/><path class="c" d="M171.93,317.4c46.43,0,84.07-40.22,84.07-86.65l.54-228.31"/><path class="c" d="M401.5,317.4c0-46.43-40.22-84.07-86.65-84.07l-228.31-.54"/><path class="c" d="M1.68,317.4l-.18-231.83C1.5,39.14,39.14,1.5,85.57,1.5s84.07,37.64,84.07,84.07"/><path class="d" d="M337.74,142.42l.11-56.85c0-46.43-37.64-84.07-84.07-84.07s-84.07,37.64-84.07,84.07l-.42,231.83h168.34l.1-174.98"/><path class="d" d="M169.62,85.49v231.91"/></g></g></svg>